<svg width="40" height="35" viewBox="0 0 40 35" fill="none" xmlns="http://www.w3.org/2000/svg">
<g clip-path="url(#clip0_260_89)">
<path d="M37.2812 25.875C37.2812 26.4303 37.0211 26.9629 36.5582 27.3555C36.0952 27.7482 35.4673 27.9688 34.8125 27.9688H5.1875C4.53275 27.9688 3.90481 27.7482 3.44183 27.3555C2.97885 26.9629 2.71875 26.4303 2.71875 25.875V13.3125C2.71875 12.7572 2.97885 12.2246 3.44183 11.832C3.90481 11.4393 4.53275 11.2188 5.1875 11.2188H8.08087C10.0441 11.2178 11.9266 10.5559 13.3146 9.37834L15.3637 7.64472C15.8253 7.25306 16.4512 7.03248 17.1042 7.03125H22.8909C23.5456 7.03137 24.1734 7.25204 24.6363 7.64472L26.6804 9.37834C27.3683 9.9619 28.185 10.4248 29.0839 10.7406C29.9828 11.0564 30.9462 11.2188 31.9191 11.2188H34.8125C35.4673 11.2188 36.0952 11.4393 36.5582 11.832C37.0211 12.2246 37.2812 12.7572 37.2812 13.3125V25.875ZM5.1875 9.125C3.87799 9.125 2.62212 9.56618 1.69616 10.3515C0.770199 11.1368 0.25 12.2019 0.25 13.3125L0.25 25.875C0.25 26.9856 0.770199 28.0507 1.69616 28.836C2.62212 29.6213 3.87799 30.0625 5.1875 30.0625H34.8125C36.122 30.0625 37.3779 29.6213 38.3038 28.836C39.2298 28.0507 39.75 26.9856 39.75 25.875V13.3125C39.75 12.2019 39.2298 11.1368 38.3038 10.3515C37.3779 9.56618 36.122 9.125 34.8125 9.125H31.9191C30.6097 9.12476 29.3541 8.68343 28.4283 7.89806L26.3842 6.16444C25.4584 5.37907 24.2028 4.93774 22.8934 4.9375H17.1066C15.7972 4.93774 14.5416 5.37907 13.6158 6.16444L11.5717 7.89806C10.6459 8.68343 9.39027 9.12476 8.08087 9.125H5.1875Z" fill="black"/>
<path d="M20 23.7812C18.3631 23.7812 16.7933 23.2298 15.6358 22.2481C14.4784 21.2665 13.8281 19.9351 13.8281 18.5469C13.8281 17.1586 14.4784 15.8272 15.6358 14.8456C16.7933 13.864 18.3631 13.3125 20 13.3125C21.6369 13.3125 23.2067 13.864 24.3642 14.8456C25.5216 15.8272 26.1719 17.1586 26.1719 18.5469C26.1719 19.9351 25.5216 21.2665 24.3642 22.2481C23.2067 23.2298 21.6369 23.7812 20 23.7812ZM20 25.875C22.2916 25.875 24.4894 25.1029 26.1098 23.7286C27.7303 22.3544 28.6406 20.4904 28.6406 18.5469C28.6406 16.6033 27.7303 14.7394 26.1098 13.3651C24.4894 11.9908 22.2916 11.2188 20 11.2188C17.7084 11.2188 15.5106 11.9908 13.8902 13.3651C12.2697 14.7394 11.3594 16.6033 11.3594 18.5469C11.3594 20.4904 12.2697 22.3544 13.8902 23.7286C15.5106 25.1029 17.7084 25.875 20 25.875ZM7.65625 14.3594C7.65625 14.637 7.5262 14.9033 7.29471 15.0996C7.06322 15.296 6.74925 15.4062 6.42188 15.4062C6.0945 15.4062 5.78053 15.296 5.54904 15.0996C5.31755 14.9033 5.1875 14.637 5.1875 14.3594C5.1875 14.0817 5.31755 13.8154 5.54904 13.6191C5.78053 13.4228 6.0945 13.3125 6.42188 13.3125C6.74925 13.3125 7.06322 13.4228 7.29471 13.6191C7.5262 13.8154 7.65625 14.0817 7.65625 14.3594Z" fill="black"/>
</g>
<defs>
<clipPath id="clip0_260_89">
<rect width="39.5" height="33.5" fill="white" transform="translate(0.25 0.75)"/>
</clipPath>
</defs>
</svg>
