<svg width="41" height="35" viewBox="0 0 41 35" fill="none" xmlns="http://www.w3.org/2000/svg">
<g clip-path="url(#clip0_57_549)">
<path d="M37.7812 25.875C37.7812 26.4303 37.5211 26.9629 37.0582 27.3555C36.5952 27.7482 35.9673 27.9688 35.3125 27.9688H5.6875C5.03275 27.9688 4.40481 27.7482 3.94183 27.3555C3.47885 26.9629 3.21875 26.4303 3.21875 25.875V13.3125C3.21875 12.7572 3.47885 12.2246 3.94183 11.832C4.40481 11.4393 5.03275 11.2188 5.6875 11.2188H8.58087C10.5441 11.2178 12.4266 10.5559 13.8146 9.37834L15.8637 7.64472C16.3253 7.25306 16.9512 7.03248 17.6042 7.03125H23.3909C24.0456 7.03137 24.6734 7.25204 25.1363 7.64472L27.1804 9.37834C27.8683 9.9619 28.685 10.4248 29.5839 10.7406C30.4828 11.0564 31.4462 11.2188 32.4191 11.2188H35.3125C35.9673 11.2188 36.5952 11.4393 37.0582 11.832C37.5211 12.2246 37.7812 12.7572 37.7812 13.3125V25.875ZM5.6875 9.125C4.37799 9.125 3.12212 9.56618 2.19616 10.3515C1.2702 11.1368 0.75 12.2019 0.75 13.3125L0.75 25.875C0.75 26.9856 1.2702 28.0507 2.19616 28.836C3.12212 29.6213 4.37799 30.0625 5.6875 30.0625H35.3125C36.622 30.0625 37.8779 29.6213 38.8038 28.836C39.7298 28.0507 40.25 26.9856 40.25 25.875V13.3125C40.25 12.2019 39.7298 11.1368 38.8038 10.3515C37.8779 9.56618 36.622 9.125 35.3125 9.125H32.4191C31.1097 9.12476 29.8541 8.68343 28.9283 7.89806L26.8842 6.16444C25.9584 5.37907 24.7028 4.93774 23.3934 4.9375H17.6066C16.2972 4.93774 15.0416 5.37907 14.1158 6.16444L12.0717 7.89806C11.1459 8.68343 9.89027 9.12476 8.58087 9.125H5.6875Z" fill="black"/>
<path d="M20.5 23.7812C18.8631 23.7812 17.2933 23.2298 16.1358 22.2481C14.9784 21.2665 14.3281 19.9351 14.3281 18.5469C14.3281 17.1586 14.9784 15.8272 16.1358 14.8456C17.2933 13.864 18.8631 13.3125 20.5 13.3125C22.1369 13.3125 23.7067 13.864 24.8642 14.8456C26.0216 15.8272 26.6719 17.1586 26.6719 18.5469C26.6719 19.9351 26.0216 21.2665 24.8642 22.2481C23.7067 23.2298 22.1369 23.7812 20.5 23.7812ZM20.5 25.875C22.7916 25.875 24.9894 25.1029 26.6098 23.7286C28.2303 22.3544 29.1406 20.4904 29.1406 18.5469C29.1406 16.6033 28.2303 14.7394 26.6098 13.3651C24.9894 11.9908 22.7916 11.2188 20.5 11.2188C18.2084 11.2188 16.0106 11.9908 14.3902 13.3651C12.7697 14.7394 11.8594 16.6033 11.8594 18.5469C11.8594 20.4904 12.7697 22.3544 14.3902 23.7286C16.0106 25.1029 18.2084 25.875 20.5 25.875ZM8.15625 14.3594C8.15625 14.637 8.0262 14.9033 7.79471 15.0996C7.56322 15.296 7.24925 15.4062 6.92188 15.4062C6.5945 15.4062 6.28053 15.296 6.04904 15.0996C5.81755 14.9033 5.6875 14.637 5.6875 14.3594C5.6875 14.0817 5.81755 13.8154 6.04904 13.6191C6.28053 13.4228 6.5945 13.3125 6.92188 13.3125C7.24925 13.3125 7.56322 13.4228 7.79471 13.6191C8.0262 13.8154 8.15625 14.0817 8.15625 14.3594Z" fill="black"/>
</g>
<defs>
<clipPath id="clip0_57_549">
<rect width="39.5" height="33.5" fill="white" transform="translate(0.75 0.75)"/>
</clipPath>
</defs>
</svg>
