<svg width="40" height="35" viewBox="0 0 40 35" fill="none" xmlns="http://www.w3.org/2000/svg">
<g clip-path="url(#clip0_260_98)">
<path d="M0.25 5.98438C0.25 5.70673 0.38005 5.44045 0.61154 5.24412C0.84303 5.0478 1.157 4.9375 1.48438 4.9375H5.1875C5.46284 4.93756 5.73026 5.0157 5.94721 5.15949C6.16417 5.30328 6.31821 5.50445 6.38484 5.73103L7.38469 9.125H36.0469C36.2344 9.12504 36.4194 9.16131 36.5879 9.23105C36.7564 9.3008 36.904 9.40218 37.0194 9.5275C37.1348 9.65283 37.215 9.7988 37.254 9.95435C37.2929 10.1099 37.2896 10.2709 37.2442 10.4252L33.5411 22.9877C33.4745 23.2143 33.3204 23.4155 33.1035 23.5593C32.8865 23.703 32.6191 23.7812 32.3438 23.7812H10.125C9.84966 23.7812 9.58225 23.703 9.36529 23.5593C9.14833 23.4155 8.99429 23.2143 8.92766 22.9877L4.22469 7.03125H1.48438C1.157 7.03125 0.84303 6.92095 0.61154 6.72463C0.38005 6.5283 0.25 6.26202 0.25 5.98438ZM8.00188 11.2188L9.23625 15.4062H12.5938V11.2188H8.00188ZM15.0625 11.2188V15.4062H20V11.2188H15.0625ZM22.4688 11.2188V15.4062H27.4063V11.2188H22.4688ZM29.875 11.2188V15.4062H33.2325L34.4669 11.2188H29.875ZM32.6153 17.5H29.875V21.6875H31.3809L32.6153 17.5ZM27.4063 17.5H22.4688V21.6875H27.4063V17.5ZM20 17.5H15.0625V21.6875H20V17.5ZM12.5938 17.5H9.85344L11.0878 21.6875H12.5938V17.5ZM12.5938 27.9688C11.939 27.9688 11.3111 28.1893 10.8481 28.582C10.3851 28.9746 10.125 29.5072 10.125 30.0625C10.125 30.6178 10.3851 31.1504 10.8481 31.543C11.3111 31.9357 11.939 32.1562 12.5938 32.1562C13.2485 32.1562 13.8764 31.9357 14.3394 31.543C14.8024 31.1504 15.0625 30.6178 15.0625 30.0625C15.0625 29.5072 14.8024 28.9746 14.3394 28.582C13.8764 28.1893 13.2485 27.9688 12.5938 27.9688ZM7.65625 30.0625C7.65625 28.9519 8.17645 27.8868 9.10241 27.1015C10.0284 26.3162 11.2842 25.875 12.5938 25.875C13.9033 25.875 15.1591 26.3162 16.0851 27.1015C17.0111 27.8868 17.5313 28.9519 17.5313 30.0625C17.5313 31.1731 17.0111 32.2382 16.0851 33.0235C15.1591 33.8088 13.9033 34.25 12.5938 34.25C11.2842 34.25 10.0284 33.8088 9.10241 33.0235C8.17645 32.2382 7.65625 31.1731 7.65625 30.0625ZM29.875 27.9688C29.2202 27.9688 28.5923 28.1893 28.1293 28.582C27.6664 28.9746 27.4063 29.5072 27.4063 30.0625C27.4063 30.6178 27.6664 31.1504 28.1293 31.543C28.5923 31.9357 29.2202 32.1562 29.875 32.1562C30.5298 32.1562 31.1577 31.9357 31.6207 31.543C32.0837 31.1504 32.3438 30.6178 32.3438 30.0625C32.3438 29.5072 32.0837 28.9746 31.6207 28.582C31.1577 28.1893 30.5298 27.9688 29.875 27.9688ZM24.9375 30.0625C24.9375 28.9519 25.4577 27.8868 26.3837 27.1015C27.3096 26.3162 28.5655 25.875 29.875 25.875C31.1845 25.875 32.4404 26.3162 33.3663 27.1015C34.2923 27.8868 34.8125 28.9519 34.8125 30.0625C34.8125 31.1731 34.2923 32.2382 33.3663 33.0235C32.4404 33.8088 31.1845 34.25 29.875 34.25C28.5655 34.25 27.3096 33.8088 26.3837 33.0235C25.4577 32.2382 24.9375 31.1731 24.9375 30.0625Z" fill="black"/>
</g>
<defs>
<clipPath id="clip0_260_98">
<rect width="39.5" height="33.5" fill="white" transform="translate(0.25 0.75)"/>
</clipPath>
</defs>
</svg>
