<svg width="41" height="35" viewBox="0 0 41 35" fill="none" xmlns="http://www.w3.org/2000/svg">
<g clip-path="url(#clip0_57_523)">
<path d="M0.75 5.98438C0.75 5.70673 0.88005 5.44045 1.11154 5.24412C1.34303 5.0478 1.657 4.9375 1.98438 4.9375H5.6875C5.96284 4.93756 6.23026 5.0157 6.44721 5.15949C6.66417 5.30328 6.81821 5.50445 6.88484 5.73103L7.88469 9.125H36.5469C36.7344 9.12504 36.9194 9.16131 37.0879 9.23105C37.2564 9.3008 37.404 9.40218 37.5194 9.5275C37.6348 9.65283 37.715 9.7988 37.754 9.95435C37.7929 10.1099 37.7896 10.2709 37.7442 10.4252L34.0411 22.9877C33.9745 23.2143 33.8204 23.4155 33.6035 23.5593C33.3865 23.703 33.1191 23.7812 32.8438 23.7812H10.625C10.3497 23.7812 10.0822 23.703 9.86529 23.5593C9.64833 23.4155 9.49429 23.2143 9.42766 22.9877L4.72469 7.03125H1.98438C1.657 7.03125 1.34303 6.92095 1.11154 6.72463C0.88005 6.5283 0.75 6.26202 0.75 5.98438ZM8.50188 11.2188L9.73625 15.4062H13.0938V11.2188H8.50188ZM15.5625 11.2188V15.4062H20.5V11.2188H15.5625ZM22.9688 11.2188V15.4062H27.9063V11.2188H22.9688ZM30.375 11.2188V15.4062H33.7325L34.9669 11.2188H30.375ZM33.1153 17.5H30.375V21.6875H31.8809L33.1153 17.5ZM27.9063 17.5H22.9688V21.6875H27.9063V17.5ZM20.5 17.5H15.5625V21.6875H20.5V17.5ZM13.0938 17.5H10.3534L11.5878 21.6875H13.0938V17.5ZM13.0938 27.9688C12.439 27.9688 11.8111 28.1893 11.3481 28.582C10.8851 28.9746 10.625 29.5072 10.625 30.0625C10.625 30.6178 10.8851 31.1504 11.3481 31.543C11.8111 31.9357 12.439 32.1562 13.0938 32.1562C13.7485 32.1562 14.3764 31.9357 14.8394 31.543C15.3024 31.1504 15.5625 30.6178 15.5625 30.0625C15.5625 29.5072 15.3024 28.9746 14.8394 28.582C14.3764 28.1893 13.7485 27.9688 13.0938 27.9688ZM8.15625 30.0625C8.15625 28.9519 8.67645 27.8868 9.60241 27.1015C10.5284 26.3162 11.7842 25.875 13.0938 25.875C14.4033 25.875 15.6591 26.3162 16.5851 27.1015C17.5111 27.8868 18.0313 28.9519 18.0313 30.0625C18.0313 31.1731 17.5111 32.2382 16.5851 33.0235C15.6591 33.8088 14.4033 34.25 13.0938 34.25C11.7842 34.25 10.5284 33.8088 9.60241 33.0235C8.67645 32.2382 8.15625 31.1731 8.15625 30.0625ZM30.375 27.9688C29.7202 27.9688 29.0923 28.1893 28.6293 28.582C28.1664 28.9746 27.9063 29.5072 27.9063 30.0625C27.9063 30.6178 28.1664 31.1504 28.6293 31.543C29.0923 31.9357 29.7202 32.1562 30.375 32.1562C31.0298 32.1562 31.6577 31.9357 32.1207 31.543C32.5837 31.1504 32.8438 30.6178 32.8438 30.0625C32.8438 29.5072 32.5837 28.9746 32.1207 28.582C31.6577 28.1893 31.0298 27.9688 30.375 27.9688ZM25.4375 30.0625C25.4375 28.9519 25.9577 27.8868 26.8837 27.1015C27.8096 26.3162 29.0655 25.875 30.375 25.875C31.6845 25.875 32.9404 26.3162 33.8663 27.1015C34.7923 27.8868 35.3125 28.9519 35.3125 30.0625C35.3125 31.1731 34.7923 32.2382 33.8663 33.0235C32.9404 33.8088 31.6845 34.25 30.375 34.25C29.0655 34.25 27.8096 33.8088 26.8837 33.0235C25.9577 32.2382 25.4375 31.1731 25.4375 30.0625Z" fill="black"/>
</g>
<defs>
<clipPath id="clip0_57_523">
<rect width="39.5" height="33.5" fill="white" transform="translate(0.75 0.75)"/>
</clipPath>
</defs>
</svg>
