<svg width="40" height="35" viewBox="0 0 40 35" fill="none" xmlns="http://www.w3.org/2000/svg">
<g clip-path="url(#clip0_260_108)">
<path d="M30.2848 19.4681C28.9912 21.6917 27.2384 23.9069 25.4461 25.8959C23.7458 27.7711 21.9278 29.5674 20 31.2769C18.0721 29.5674 16.2541 27.7712 14.5539 25.8959C12.7616 23.9069 11.0088 21.6917 9.71519 19.4681C8.40675 17.2215 7.65625 15.1173 7.65625 13.3125C7.65625 10.536 8.95675 7.87325 11.2717 5.90998C13.5866 3.9467 16.7262 2.84375 20 2.84375C23.2738 2.84375 26.4134 3.9467 28.7283 5.90998C31.0433 7.87325 32.3438 10.536 32.3438 13.3125C32.3438 15.1173 31.5908 17.2215 30.2848 19.4681ZM20 34.25C20 34.25 34.8125 22.3449 34.8125 13.3125C34.8125 9.98072 33.2519 6.7854 30.474 4.42947C27.6961 2.07355 23.9285 0.75 20 0.75C16.0715 0.75 12.3039 2.07355 9.52598 4.42947C6.7481 6.7854 5.1875 9.98072 5.1875 13.3125C5.1875 22.3449 20 34.25 20 34.25Z" fill="black"/>
<path d="M20 17.5C18.6905 17.5 17.4346 17.0588 16.5087 16.2735C15.5827 15.4882 15.0625 14.4231 15.0625 13.3125C15.0625 12.2019 15.5827 11.1368 16.5087 10.3515C17.4346 9.56618 18.6905 9.125 20 9.125C21.3095 9.125 22.5654 9.56618 23.4913 10.3515C24.4173 11.1368 24.9375 12.2019 24.9375 13.3125C24.9375 14.4231 24.4173 15.4882 23.4913 16.2735C22.5654 17.0588 21.3095 17.5 20 17.5ZM20 19.5938C21.9643 19.5938 23.8481 18.932 25.237 17.754C26.626 16.5761 27.4062 14.9784 27.4062 13.3125C27.4062 11.6466 26.626 10.0489 25.237 8.87099C23.8481 7.69302 21.9643 7.03125 20 7.03125C18.0357 7.03125 16.1519 7.69302 14.763 8.87099C13.374 10.0489 12.5938 11.6466 12.5938 13.3125C12.5938 14.9784 13.374 16.5761 14.763 17.754C16.1519 18.932 18.0357 19.5938 20 19.5938Z" fill="black"/>
</g>
<defs>
<clipPath id="clip0_260_108">
<rect width="39.5" height="33.5" fill="white" transform="translate(0.25 0.75)"/>
</clipPath>
</defs>
</svg>
