<svg width="41" height="35" viewBox="0 0 41 35" fill="none" xmlns="http://www.w3.org/2000/svg">
<g clip-path="url(#clip0_57_796)">
<path d="M30.7848 19.4681C29.4912 21.6917 27.7384 23.9069 25.9461 25.8959C24.2458 27.7711 22.4278 29.5674 20.5 31.2769C18.5721 29.5674 16.7541 27.7712 15.0539 25.8959C13.2616 23.9069 11.5088 21.6917 10.2152 19.4681C8.90675 17.2215 8.15625 15.1173 8.15625 13.3125C8.15625 10.536 9.45675 7.87325 11.7717 5.90998C14.0866 3.9467 17.2262 2.84375 20.5 2.84375C23.7738 2.84375 26.9134 3.9467 29.2283 5.90998C31.5433 7.87325 32.8438 10.536 32.8438 13.3125C32.8438 15.1173 32.0908 17.2215 30.7848 19.4681ZM20.5 34.25C20.5 34.25 35.3125 22.3449 35.3125 13.3125C35.3125 9.98072 33.7519 6.7854 30.974 4.42947C28.1961 2.07355 24.4285 0.75 20.5 0.75C16.5715 0.75 12.8039 2.07355 10.026 4.42947C7.2481 6.7854 5.6875 9.98072 5.6875 13.3125C5.6875 22.3449 20.5 34.25 20.5 34.25Z" fill="black"/>
<path d="M20.5 17.5C19.1905 17.5 17.9346 17.0588 17.0087 16.2735C16.0827 15.4882 15.5625 14.4231 15.5625 13.3125C15.5625 12.2019 16.0827 11.1368 17.0087 10.3515C17.9346 9.56618 19.1905 9.125 20.5 9.125C21.8095 9.125 23.0654 9.56618 23.9913 10.3515C24.9173 11.1368 25.4375 12.2019 25.4375 13.3125C25.4375 14.4231 24.9173 15.4882 23.9913 16.2735C23.0654 17.0588 21.8095 17.5 20.5 17.5ZM20.5 19.5938C22.4643 19.5938 24.3481 18.932 25.737 17.754C27.126 16.5761 27.9062 14.9784 27.9062 13.3125C27.9062 11.6466 27.126 10.0489 25.737 8.87099C24.3481 7.69302 22.4643 7.03125 20.5 7.03125C18.5357 7.03125 16.6519 7.69302 15.263 8.87099C13.874 10.0489 13.0938 11.6466 13.0938 13.3125C13.0938 14.9784 13.874 16.5761 15.263 17.754C16.6519 18.932 18.5357 19.5938 20.5 19.5938Z" fill="black"/>
</g>
<defs>
<clipPath id="clip0_57_796">
<rect width="39.5" height="33.5" fill="white" transform="translate(0.75 0.75)"/>
</clipPath>
</defs>
</svg>
