<svg width="40" height="35" viewBox="0 0 40 35" fill="none" xmlns="http://www.w3.org/2000/svg">
<g clip-path="url(#clip0_57_569)">
<path d="M33.5781 7.03125C33.9055 7.03125 34.2195 7.14155 34.451 7.33787C34.6824 7.5342 34.8125 7.80048 34.8125 8.07812V23.7812H5.1875V8.07812C5.1875 7.80048 5.31755 7.5342 5.54904 7.33787C5.78053 7.14155 6.0945 7.03125 6.42188 7.03125H33.5781ZM6.42188 4.9375C5.43974 4.9375 4.49784 5.26839 3.80337 5.85737C3.1089 6.44635 2.71875 7.24518 2.71875 8.07812V25.875H37.2812V8.07812C37.2812 7.24518 36.8911 6.44635 36.1966 5.85737C35.5022 5.26839 34.5603 4.9375 33.5781 4.9375H6.42188ZM0.25 26.9219H39.75C39.75 27.7548 39.3599 28.5537 38.6654 29.1426C37.9709 29.7316 37.029 30.0625 36.0469 30.0625H3.95312C2.971 30.0625 2.02909 29.7316 1.33462 29.1426C0.64015 28.5537 0.25 27.7548 0.25 26.9219Z" fill="black"/>
</g>
<defs>
<clipPath id="clip0_57_569">
<rect width="39.5" height="33.5" fill="white" transform="translate(0.25 0.75)"/>
</clipPath>
</defs>
</svg>
