<svg width="41" height="35" viewBox="0 0 41 35" fill="none" xmlns="http://www.w3.org/2000/svg">
<g clip-path="url(#clip0_260_84)">
<path d="M34.0781 7.03125C34.4055 7.03125 34.7195 7.14155 34.951 7.33787C35.1824 7.5342 35.3125 7.80048 35.3125 8.07812V23.7812H5.6875V8.07812C5.6875 7.80048 5.81755 7.5342 6.04904 7.33787C6.28053 7.14155 6.5945 7.03125 6.92188 7.03125H34.0781ZM6.92188 4.9375C5.93974 4.9375 4.99784 5.26839 4.30337 5.85737C3.6089 6.44635 3.21875 7.24518 3.21875 8.07812V25.875H37.7812V8.07812C37.7812 7.24518 37.3911 6.44635 36.6966 5.85737C36.0022 5.26839 35.0603 4.9375 34.0781 4.9375H6.92188ZM0.75 26.9219H40.25C40.25 27.7548 39.8599 28.5537 39.1654 29.1426C38.4709 29.7316 37.529 30.0625 36.5469 30.0625H4.45312C3.471 30.0625 2.52909 29.7316 1.83462 29.1426C1.14015 28.5537 0.75 27.7548 0.75 26.9219Z" fill="black"/>
</g>
<defs>
<clipPath id="clip0_260_84">
<rect width="39.5" height="33.5" fill="white" transform="translate(0.75 0.75)"/>
</clipPath>
</defs>
</svg>
