<svg width="41" height="35" viewBox="0 0 41 35" fill="none" xmlns="http://www.w3.org/2000/svg">
<g clip-path="url(#clip0_260_114)">
<path fill-rule="evenodd" clip-rule="evenodd" d="M0.75 1.79688C0.75 1.51923 0.88005 1.25295 1.11154 1.05662C1.34303 0.860295 1.657 0.75 1.98438 0.75L6.92188 0.75C7.24925 0.75 7.56322 0.860295 7.79471 1.05662C8.0262 1.25295 8.15625 1.51923 8.15625 1.79688C8.15625 2.07452 8.0262 2.3408 7.79471 2.53713C7.56322 2.73345 7.24925 2.84375 6.92188 2.84375H1.98438C1.657 2.84375 1.34303 2.73345 1.11154 2.53713C0.88005 2.3408 0.75 2.07452 0.75 1.79688ZM10.625 1.79688C10.625 1.51923 10.755 1.25295 10.9865 1.05662C11.218 0.860295 11.532 0.75 11.8594 0.75L36.5469 0.75C36.8743 0.75 37.1882 0.860295 37.4197 1.05662C37.6512 1.25295 37.7812 1.51923 37.7812 1.79688C37.7812 2.07452 37.6512 2.3408 37.4197 2.53713C37.1882 2.73345 36.8743 2.84375 36.5469 2.84375H11.8594C11.532 2.84375 11.218 2.73345 10.9865 2.53713C10.755 2.3408 10.625 2.07452 10.625 1.79688ZM0.75 5.98438C0.75 5.70673 0.88005 5.44045 1.11154 5.24412C1.34303 5.0478 1.657 4.9375 1.98438 4.9375H6.92188C7.24925 4.9375 7.56322 5.0478 7.79471 5.24412C8.0262 5.44045 8.15625 5.70673 8.15625 5.98438C8.15625 6.26202 8.0262 6.5283 7.79471 6.72463C7.56322 6.92095 7.24925 7.03125 6.92188 7.03125H1.98438C1.657 7.03125 1.34303 6.92095 1.11154 6.72463C0.88005 6.5283 0.75 6.26202 0.75 5.98438ZM10.625 5.98438C10.625 5.70673 10.755 5.44045 10.9865 5.24412C11.218 5.0478 11.532 4.9375 11.8594 4.9375H34.0781C34.4055 4.9375 34.7195 5.0478 34.951 5.24412C35.1824 5.44045 35.3125 5.70673 35.3125 5.98438C35.3125 6.26202 35.1824 6.5283 34.951 6.72463C34.7195 6.92095 34.4055 7.03125 34.0781 7.03125H11.8594C11.532 7.03125 11.218 6.92095 10.9865 6.72463C10.755 6.5283 10.625 6.26202 10.625 5.98438ZM0.75 10.1719C0.75 9.89423 0.88005 9.62795 1.11154 9.43162C1.34303 9.2353 1.657 9.125 1.98438 9.125H6.92188C7.24925 9.125 7.56322 9.2353 7.79471 9.43162C8.0262 9.62795 8.15625 9.89423 8.15625 10.1719C8.15625 10.4495 8.0262 10.7158 7.79471 10.9121C7.56322 11.1085 7.24925 11.2188 6.92188 11.2188H1.98438C1.657 11.2188 1.34303 11.1085 1.11154 10.9121C0.88005 10.7158 0.75 10.4495 0.75 10.1719ZM10.625 10.1719C10.625 9.89423 10.755 9.62795 10.9865 9.43162C11.218 9.2353 11.532 9.125 11.8594 9.125H39.0156C39.343 9.125 39.657 9.2353 39.8885 9.43162C40.1199 9.62795 40.25 9.89423 40.25 10.1719C40.25 10.4495 40.1199 10.7158 39.8885 10.9121C39.657 11.1085 39.343 11.2188 39.0156 11.2188H11.8594C11.532 11.2188 11.218 11.1085 10.9865 10.9121C10.755 10.7158 10.625 10.4495 10.625 10.1719ZM0.75 14.3594C0.75 14.0817 0.88005 13.8154 1.11154 13.6191C1.34303 13.4228 1.657 13.3125 1.98438 13.3125H6.92188C7.24925 13.3125 7.56322 13.4228 7.79471 13.6191C8.0262 13.8154 8.15625 14.0817 8.15625 14.3594C8.15625 14.637 8.0262 14.9033 7.79471 15.0996C7.56322 15.296 7.24925 15.4062 6.92188 15.4062H1.98438C1.657 15.4062 1.34303 15.296 1.11154 15.0996C0.88005 14.9033 0.75 14.637 0.75 14.3594ZM10.625 14.3594C10.625 14.0817 10.755 13.8154 10.9865 13.6191C11.218 13.4228 11.532 13.3125 11.8594 13.3125H31.6094C31.9368 13.3125 32.2507 13.4228 32.4822 13.6191C32.7137 13.8154 32.8438 14.0817 32.8438 14.3594C32.8438 14.637 32.7137 14.9033 32.4822 15.0996C32.2507 15.296 31.9368 15.4062 31.6094 15.4062H11.8594C11.532 15.4062 11.218 15.296 10.9865 15.0996C10.755 14.9033 10.625 14.637 10.625 14.3594ZM0.75 18.5469C0.75 18.2692 0.88005 18.0029 1.11154 17.8066C1.34303 17.6103 1.657 17.5 1.98438 17.5H6.92188C7.24925 17.5 7.56322 17.6103 7.79471 17.8066C8.0262 18.0029 8.15625 18.2692 8.15625 18.5469C8.15625 18.8245 8.0262 19.0908 7.79471 19.2871C7.56322 19.4835 7.24925 19.5938 6.92188 19.5938H1.98438C1.657 19.5938 1.34303 19.4835 1.11154 19.2871C0.88005 19.0908 0.75 18.8245 0.75 18.5469ZM10.625 18.5469C10.625 18.2692 10.755 18.0029 10.9865 17.8066C11.218 17.6103 11.532 17.5 11.8594 17.5H31.6094C31.9368 17.5 32.2507 17.6103 32.4822 17.8066C32.7137 18.0029 32.8438 18.2692 32.8438 18.5469C32.8438 18.8245 32.7137 19.0908 32.4822 19.2871C32.2507 19.4835 31.9368 19.5938 31.6094 19.5938H11.8594C11.532 19.5938 11.218 19.4835 10.9865 19.2871C10.755 19.0908 10.625 18.8245 10.625 18.5469ZM0.75 22.7344C0.75 22.4567 0.88005 22.1904 1.11154 21.9941C1.34303 21.7978 1.657 21.6875 1.98438 21.6875H6.92188C7.24925 21.6875 7.56322 21.7978 7.79471 21.9941C8.0262 22.1904 8.15625 22.4567 8.15625 22.7344C8.15625 23.012 8.0262 23.2783 7.79471 23.4746C7.56322 23.671 7.24925 23.7812 6.92188 23.7812H1.98438C1.657 23.7812 1.34303 23.671 1.11154 23.4746C0.88005 23.2783 0.75 23.012 0.75 22.7344ZM10.625 22.7344C10.625 22.4567 10.755 22.1904 10.9865 21.9941C11.218 21.7978 11.532 21.6875 11.8594 21.6875H36.5469C36.8743 21.6875 37.1882 21.7978 37.4197 21.9941C37.6512 22.1904 37.7812 22.4567 37.7812 22.7344C37.7812 23.012 37.6512 23.2783 37.4197 23.4746C37.1882 23.671 36.8743 23.7812 36.5469 23.7812H11.8594C11.532 23.7812 11.218 23.671 10.9865 23.4746C10.755 23.2783 10.625 23.012 10.625 22.7344ZM0.75 26.9219C0.75 26.6442 0.88005 26.3779 1.11154 26.1816C1.34303 25.9853 1.657 25.875 1.98438 25.875H6.92188C7.24925 25.875 7.56322 25.9853 7.79471 26.1816C8.0262 26.3779 8.15625 26.6442 8.15625 26.9219C8.15625 27.1995 8.0262 27.4658 7.79471 27.6621C7.56322 27.8585 7.24925 27.9688 6.92188 27.9688H1.98438C1.657 27.9688 1.34303 27.8585 1.11154 27.6621C0.88005 27.4658 0.75 27.1995 0.75 26.9219ZM10.625 26.9219C10.625 26.6442 10.755 26.3779 10.9865 26.1816C11.218 25.9853 11.532 25.875 11.8594 25.875H26.6719C26.9993 25.875 27.3132 25.9853 27.5447 26.1816C27.7762 26.3779 27.9062 26.6442 27.9062 26.9219C27.9062 27.1995 27.7762 27.4658 27.5447 27.6621C27.3132 27.8585 26.9993 27.9688 26.6719 27.9688H11.8594C11.532 27.9688 11.218 27.8585 10.9865 27.6621C10.755 27.4658 10.625 27.1995 10.625 26.9219ZM0.75 31.1094C0.75 30.8317 0.88005 30.5654 1.11154 30.3691C1.34303 30.1728 1.657 30.0625 1.98438 30.0625H6.92188C7.24925 30.0625 7.56322 30.1728 7.79471 30.3691C8.0262 30.5654 8.15625 30.8317 8.15625 31.1094C8.15625 31.387 8.0262 31.6533 7.79471 31.8496C7.56322 32.046 7.24925 32.1562 6.92188 32.1562H1.98438C1.657 32.1562 1.34303 32.046 1.11154 31.8496C0.88005 31.6533 0.75 31.387 0.75 31.1094ZM10.625 31.1094C10.625 30.8317 10.755 30.5654 10.9865 30.3691C11.218 30.1728 11.532 30.0625 11.8594 30.0625H39.0156C39.343 30.0625 39.657 30.1728 39.8885 30.3691C40.1199 30.5654 40.25 30.8317 40.25 31.1094C40.25 31.387 40.1199 31.6533 39.8885 31.8496C39.657 32.046 39.343 32.1562 39.0156 32.1562H11.8594C11.532 32.1562 11.218 32.046 10.9865 31.8496C10.755 31.6533 10.625 31.387 10.625 31.1094Z" fill="black"/>
</g>
<defs>
<clipPath id="clip0_260_114">
<rect width="39.5" height="33.5" fill="white" transform="translate(0.75 0.75)"/>
</clipPath>
</defs>
</svg>
