<svg width="40" height="35" viewBox="0 0 40 35" fill="none" xmlns="http://www.w3.org/2000/svg">
<g clip-path="url(#clip0_57_563)">
<path fill-rule="evenodd" clip-rule="evenodd" d="M0.25 1.79688C0.25 1.51923 0.38005 1.25295 0.61154 1.05662C0.84303 0.860295 1.157 0.75 1.48438 0.75L6.42188 0.75C6.74925 0.75 7.06322 0.860295 7.29471 1.05662C7.5262 1.25295 7.65625 1.51923 7.65625 1.79688C7.65625 2.07452 7.5262 2.3408 7.29471 2.53713C7.06322 2.73345 6.74925 2.84375 6.42188 2.84375H1.48438C1.157 2.84375 0.84303 2.73345 0.61154 2.53713C0.38005 2.3408 0.25 2.07452 0.25 1.79688ZM10.125 1.79688C10.125 1.51923 10.255 1.25295 10.4865 1.05662C10.718 0.860295 11.032 0.75 11.3594 0.75L36.0469 0.75C36.3743 0.75 36.6882 0.860295 36.9197 1.05662C37.1512 1.25295 37.2812 1.51923 37.2812 1.79688C37.2812 2.07452 37.1512 2.3408 36.9197 2.53713C36.6882 2.73345 36.3743 2.84375 36.0469 2.84375H11.3594C11.032 2.84375 10.718 2.73345 10.4865 2.53713C10.255 2.3408 10.125 2.07452 10.125 1.79688ZM0.25 5.98438C0.25 5.70673 0.38005 5.44045 0.61154 5.24412C0.84303 5.0478 1.157 4.9375 1.48438 4.9375H6.42188C6.74925 4.9375 7.06322 5.0478 7.29471 5.24412C7.5262 5.44045 7.65625 5.70673 7.65625 5.98438C7.65625 6.26202 7.5262 6.5283 7.29471 6.72463C7.06322 6.92095 6.74925 7.03125 6.42188 7.03125H1.48438C1.157 7.03125 0.84303 6.92095 0.61154 6.72463C0.38005 6.5283 0.25 6.26202 0.25 5.98438ZM10.125 5.98438C10.125 5.70673 10.255 5.44045 10.4865 5.24412C10.718 5.0478 11.032 4.9375 11.3594 4.9375H33.5781C33.9055 4.9375 34.2195 5.0478 34.451 5.24412C34.6824 5.44045 34.8125 5.70673 34.8125 5.98438C34.8125 6.26202 34.6824 6.5283 34.451 6.72463C34.2195 6.92095 33.9055 7.03125 33.5781 7.03125H11.3594C11.032 7.03125 10.718 6.92095 10.4865 6.72463C10.255 6.5283 10.125 6.26202 10.125 5.98438ZM0.25 10.1719C0.25 9.89423 0.38005 9.62795 0.61154 9.43162C0.84303 9.2353 1.157 9.125 1.48438 9.125H6.42188C6.74925 9.125 7.06322 9.2353 7.29471 9.43162C7.5262 9.62795 7.65625 9.89423 7.65625 10.1719C7.65625 10.4495 7.5262 10.7158 7.29471 10.9121C7.06322 11.1085 6.74925 11.2188 6.42188 11.2188H1.48438C1.157 11.2188 0.84303 11.1085 0.61154 10.9121C0.38005 10.7158 0.25 10.4495 0.25 10.1719ZM10.125 10.1719C10.125 9.89423 10.255 9.62795 10.4865 9.43162C10.718 9.2353 11.032 9.125 11.3594 9.125H38.5156C38.843 9.125 39.157 9.2353 39.3885 9.43162C39.6199 9.62795 39.75 9.89423 39.75 10.1719C39.75 10.4495 39.6199 10.7158 39.3885 10.9121C39.157 11.1085 38.843 11.2188 38.5156 11.2188H11.3594C11.032 11.2188 10.718 11.1085 10.4865 10.9121C10.255 10.7158 10.125 10.4495 10.125 10.1719ZM0.25 14.3594C0.25 14.0817 0.38005 13.8154 0.61154 13.6191C0.84303 13.4228 1.157 13.3125 1.48438 13.3125H6.42188C6.74925 13.3125 7.06322 13.4228 7.29471 13.6191C7.5262 13.8154 7.65625 14.0817 7.65625 14.3594C7.65625 14.637 7.5262 14.9033 7.29471 15.0996C7.06322 15.296 6.74925 15.4062 6.42188 15.4062H1.48438C1.157 15.4062 0.84303 15.296 0.61154 15.0996C0.38005 14.9033 0.25 14.637 0.25 14.3594ZM10.125 14.3594C10.125 14.0817 10.255 13.8154 10.4865 13.6191C10.718 13.4228 11.032 13.3125 11.3594 13.3125H31.1094C31.4368 13.3125 31.7507 13.4228 31.9822 13.6191C32.2137 13.8154 32.3438 14.0817 32.3438 14.3594C32.3438 14.637 32.2137 14.9033 31.9822 15.0996C31.7507 15.296 31.4368 15.4062 31.1094 15.4062H11.3594C11.032 15.4062 10.718 15.296 10.4865 15.0996C10.255 14.9033 10.125 14.637 10.125 14.3594ZM0.25 18.5469C0.25 18.2692 0.38005 18.0029 0.61154 17.8066C0.84303 17.6103 1.157 17.5 1.48438 17.5H6.42188C6.74925 17.5 7.06322 17.6103 7.29471 17.8066C7.5262 18.0029 7.65625 18.2692 7.65625 18.5469C7.65625 18.8245 7.5262 19.0908 7.29471 19.2871C7.06322 19.4835 6.74925 19.5938 6.42188 19.5938H1.48438C1.157 19.5938 0.84303 19.4835 0.61154 19.2871C0.38005 19.0908 0.25 18.8245 0.25 18.5469ZM10.125 18.5469C10.125 18.2692 10.255 18.0029 10.4865 17.8066C10.718 17.6103 11.032 17.5 11.3594 17.5H31.1094C31.4368 17.5 31.7507 17.6103 31.9822 17.8066C32.2137 18.0029 32.3438 18.2692 32.3438 18.5469C32.3438 18.8245 32.2137 19.0908 31.9822 19.2871C31.7507 19.4835 31.4368 19.5938 31.1094 19.5938H11.3594C11.032 19.5938 10.718 19.4835 10.4865 19.2871C10.255 19.0908 10.125 18.8245 10.125 18.5469ZM0.25 22.7344C0.25 22.4567 0.38005 22.1904 0.61154 21.9941C0.84303 21.7978 1.157 21.6875 1.48438 21.6875H6.42188C6.74925 21.6875 7.06322 21.7978 7.29471 21.9941C7.5262 22.1904 7.65625 22.4567 7.65625 22.7344C7.65625 23.012 7.5262 23.2783 7.29471 23.4746C7.06322 23.671 6.74925 23.7812 6.42188 23.7812H1.48438C1.157 23.7812 0.84303 23.671 0.61154 23.4746C0.38005 23.2783 0.25 23.012 0.25 22.7344ZM10.125 22.7344C10.125 22.4567 10.255 22.1904 10.4865 21.9941C10.718 21.7978 11.032 21.6875 11.3594 21.6875H36.0469C36.3743 21.6875 36.6882 21.7978 36.9197 21.9941C37.1512 22.1904 37.2812 22.4567 37.2812 22.7344C37.2812 23.012 37.1512 23.2783 36.9197 23.4746C36.6882 23.671 36.3743 23.7812 36.0469 23.7812H11.3594C11.032 23.7812 10.718 23.671 10.4865 23.4746C10.255 23.2783 10.125 23.012 10.125 22.7344ZM0.25 26.9219C0.25 26.6442 0.38005 26.3779 0.61154 26.1816C0.84303 25.9853 1.157 25.875 1.48438 25.875H6.42188C6.74925 25.875 7.06322 25.9853 7.29471 26.1816C7.5262 26.3779 7.65625 26.6442 7.65625 26.9219C7.65625 27.1995 7.5262 27.4658 7.29471 27.6621C7.06322 27.8585 6.74925 27.9688 6.42188 27.9688H1.48438C1.157 27.9688 0.84303 27.8585 0.61154 27.6621C0.38005 27.4658 0.25 27.1995 0.25 26.9219ZM10.125 26.9219C10.125 26.6442 10.255 26.3779 10.4865 26.1816C10.718 25.9853 11.032 25.875 11.3594 25.875H26.1719C26.4993 25.875 26.8132 25.9853 27.0447 26.1816C27.2762 26.3779 27.4062 26.6442 27.4062 26.9219C27.4062 27.1995 27.2762 27.4658 27.0447 27.6621C26.8132 27.8585 26.4993 27.9688 26.1719 27.9688H11.3594C11.032 27.9688 10.718 27.8585 10.4865 27.6621C10.255 27.4658 10.125 27.1995 10.125 26.9219ZM0.25 31.1094C0.25 30.8317 0.38005 30.5654 0.61154 30.3691C0.84303 30.1728 1.157 30.0625 1.48438 30.0625H6.42188C6.74925 30.0625 7.06322 30.1728 7.29471 30.3691C7.5262 30.5654 7.65625 30.8317 7.65625 31.1094C7.65625 31.387 7.5262 31.6533 7.29471 31.8496C7.06322 32.046 6.74925 32.1562 6.42188 32.1562H1.48438C1.157 32.1562 0.84303 32.046 0.61154 31.8496C0.38005 31.6533 0.25 31.387 0.25 31.1094ZM10.125 31.1094C10.125 30.8317 10.255 30.5654 10.4865 30.3691C10.718 30.1728 11.032 30.0625 11.3594 30.0625H38.5156C38.843 30.0625 39.157 30.1728 39.3885 30.3691C39.6199 30.5654 39.75 30.8317 39.75 31.1094C39.75 31.387 39.6199 31.6533 39.3885 31.8496C39.157 32.046 38.843 32.1562 38.5156 32.1562H11.3594C11.032 32.1562 10.718 32.046 10.4865 31.8496C10.255 31.6533 10.125 31.387 10.125 31.1094Z" fill="black"/>
</g>
<defs>
<clipPath id="clip0_57_563">
<rect width="39.5" height="33.5" fill="white" transform="translate(0.25 0.75)"/>
</clipPath>
</defs>
</svg>
