<svg width="40" height="35" viewBox="0 0 40 35" fill="none" xmlns="http://www.w3.org/2000/svg">
<g clip-path="url(#clip0_132_181)">
<path d="M20 11.2188C20.4863 11.2188 20.9678 11.1375 21.4171 10.9797C21.8664 10.8219 22.2746 10.5905 22.6185 10.2989C22.9624 10.0072 23.2351 9.66103 23.4212 9.27999C23.6073 8.89895 23.7031 8.49056 23.7031 8.07812C23.7031 7.66569 23.6073 7.2573 23.4212 6.87626C23.2351 6.49522 22.9624 6.149 22.6185 5.85737C22.2746 5.56573 21.8664 5.3344 21.4171 5.17657C20.9678 5.01873 20.4863 4.9375 20 4.9375C19.0179 4.9375 18.076 5.26839 17.3815 5.85737C16.687 6.44635 16.2969 7.24518 16.2969 8.07812C16.2969 8.91107 16.687 9.7099 17.3815 10.2989C18.076 10.8879 19.0179 11.2188 20 11.2188ZM29.875 17.5C30.8571 17.5 31.799 17.1691 32.4935 16.5801C33.188 15.9912 33.5781 15.1923 33.5781 14.3594C33.5781 13.5264 33.188 12.7276 32.4935 12.1386C31.799 11.5496 30.8571 11.2188 29.875 11.2188C28.8929 11.2188 27.951 11.5496 27.2565 12.1386C26.562 12.7276 26.1719 13.5264 26.1719 14.3594C26.1719 15.1923 26.562 15.9912 27.2565 16.5801C27.951 17.1691 28.8929 17.5 29.875 17.5ZM13.8281 15.4062C13.8281 16.2392 13.438 17.038 12.7435 17.627C12.049 18.216 11.1071 18.5469 10.125 18.5469C9.14287 18.5469 8.20097 18.216 7.5065 17.627C6.81202 17.038 6.42188 16.2392 6.42188 15.4062C6.42188 14.5733 6.81202 13.7745 7.5065 13.1855C8.20097 12.5965 9.14287 12.2656 10.125 12.2656C11.1071 12.2656 12.049 12.5965 12.7435 13.1855C13.438 13.7745 13.8281 14.5733 13.8281 15.4062ZM15.0625 27.9688C16.0446 27.9688 16.9865 27.6379 17.681 27.0489C18.3755 26.4599 18.7656 25.6611 18.7656 24.8281C18.7656 23.9952 18.3755 23.1963 17.681 22.6074C16.9865 22.0184 16.0446 21.6875 15.0625 21.6875C14.0804 21.6875 13.1385 22.0184 12.444 22.6074C11.7495 23.1963 11.3594 23.9952 11.3594 24.8281C11.3594 25.6611 11.7495 26.4599 12.444 27.0489C13.1385 27.6379 14.0804 27.9688 15.0625 27.9688Z" fill="black"/>
<path d="M39.75 17.5C39.75 24.0953 35.1433 22.9123 30.944 21.8341C28.4431 21.1913 26.0855 20.5841 24.9375 21.6875C23.4489 23.1175 23.7649 25.496 24.071 27.8013C24.5079 31.0989 24.9276 34.25 20 34.25C16.0938 34.25 12.2754 33.2676 9.0275 31.4271C5.77963 29.5866 3.24822 26.9706 1.75339 23.91C0.258557 20.8493 -0.132559 17.4814 0.6295 14.2322C1.39156 10.9831 3.27256 7.9985 6.03465 5.65597C8.79674 3.31344 12.3159 1.71816 16.147 1.07185C19.9781 0.425552 23.9492 0.757257 27.558 2.02503C31.1669 3.29279 34.2514 5.43968 36.4215 8.1942C38.5917 10.9487 39.75 14.1872 39.75 17.5ZM20 32.1563C21.5084 32.1563 21.6146 31.7982 21.617 31.7878C21.8096 31.4821 21.9232 30.8163 21.7899 29.4448C21.7553 29.0931 21.6985 28.6702 21.6393 28.2074C21.5109 27.2359 21.3628 26.1032 21.3479 25.1464C21.3233 23.6661 21.5529 21.7754 23.0859 20.3014C23.9969 19.4284 25.172 19.0913 26.2262 19.0075C27.2236 18.9279 28.2308 19.0619 29.09 19.2253C29.9367 19.3865 30.823 19.6147 31.6204 19.8199L31.6895 19.8366C32.5437 20.0565 33.314 20.2533 34.0423 20.3936C35.6544 20.7034 36.274 20.5674 36.4888 20.4438C36.5826 20.3894 37.2813 19.9308 37.2813 17.5C37.2813 14.6013 36.2677 11.7676 34.3688 9.35743C32.47 6.94722 29.771 5.06869 26.6133 3.9594C23.4555 2.8501 19.9808 2.55986 16.6286 3.12537C13.2764 3.69089 10.1971 5.08676 7.78032 7.13647C5.36349 9.18619 3.71761 11.7977 3.05081 14.6407C2.38401 17.4837 2.72624 20.4306 4.03422 23.1087C5.34219 25.7868 7.55717 28.0758 10.3991 29.6862C13.2409 31.2967 16.5821 32.1563 20 32.1563Z" fill="black"/>
</g>
<defs>
<clipPath id="clip0_132_181">
<rect width="39.5" height="33.5" fill="white" transform="translate(0.25 0.75)"/>
</clipPath>
</defs>
</svg>
