<svg width="41" height="35" viewBox="0 0 41 35" fill="none" xmlns="http://www.w3.org/2000/svg">
<g clip-path="url(#clip0_260_61)">
<path d="M20.5 11.2188C20.9863 11.2188 21.4678 11.1375 21.9171 10.9797C22.3664 10.8219 22.7746 10.5905 23.1185 10.2989C23.4624 10.0072 23.7351 9.66103 23.9212 9.27999C24.1073 8.89895 24.2031 8.49056 24.2031 8.07812C24.2031 7.66569 24.1073 7.2573 23.9212 6.87626C23.7351 6.49522 23.4624 6.149 23.1185 5.85737C22.7746 5.56573 22.3664 5.3344 21.9171 5.17657C21.4678 5.01873 20.9863 4.9375 20.5 4.9375C19.5179 4.9375 18.576 5.26839 17.8815 5.85737C17.187 6.44635 16.7969 7.24518 16.7969 8.07812C16.7969 8.91107 17.187 9.7099 17.8815 10.2989C18.576 10.8879 19.5179 11.2188 20.5 11.2188ZM30.375 17.5C31.3571 17.5 32.299 17.1691 32.9935 16.5801C33.688 15.9912 34.0781 15.1923 34.0781 14.3594C34.0781 13.5264 33.688 12.7276 32.9935 12.1386C32.299 11.5496 31.3571 11.2188 30.375 11.2188C29.3929 11.2188 28.451 11.5496 27.7565 12.1386C27.062 12.7276 26.6719 13.5264 26.6719 14.3594C26.6719 15.1923 27.062 15.9912 27.7565 16.5801C28.451 17.1691 29.3929 17.5 30.375 17.5ZM14.3281 15.4062C14.3281 16.2392 13.938 17.038 13.2435 17.627C12.549 18.216 11.6071 18.5469 10.625 18.5469C9.64287 18.5469 8.70097 18.216 8.0065 17.627C7.31202 17.038 6.92188 16.2392 6.92188 15.4062C6.92188 14.5733 7.31202 13.7745 8.0065 13.1855C8.70097 12.5965 9.64287 12.2656 10.625 12.2656C11.6071 12.2656 12.549 12.5965 13.2435 13.1855C13.938 13.7745 14.3281 14.5733 14.3281 15.4062ZM15.5625 27.9688C16.5446 27.9688 17.4865 27.6379 18.181 27.0489C18.8755 26.4599 19.2656 25.6611 19.2656 24.8281C19.2656 23.9952 18.8755 23.1963 18.181 22.6074C17.4865 22.0184 16.5446 21.6875 15.5625 21.6875C14.5804 21.6875 13.6385 22.0184 12.944 22.6074C12.2495 23.1963 11.8594 23.9952 11.8594 24.8281C11.8594 25.6611 12.2495 26.4599 12.944 27.0489C13.6385 27.6379 14.5804 27.9688 15.5625 27.9688Z" fill="black"/>
<path d="M40.25 17.5C40.25 24.0953 35.6433 22.9123 31.444 21.8341C28.9431 21.1913 26.5855 20.5841 25.4375 21.6875C23.9489 23.1175 24.2649 25.496 24.571 27.8013C25.0079 31.0989 25.4276 34.25 20.5 34.25C16.5938 34.25 12.7754 33.2676 9.5275 31.4271C6.27963 29.5866 3.74822 26.9706 2.25339 23.91C0.758557 20.8493 0.367441 17.4814 1.1295 14.2322C1.89156 10.9831 3.77256 7.9985 6.53465 5.65597C9.29674 3.31344 12.8159 1.71816 16.647 1.07185C20.4781 0.425552 24.4492 0.757257 28.058 2.02503C31.6669 3.29279 34.7514 5.43968 36.9215 8.1942C39.0917 10.9487 40.25 14.1872 40.25 17.5ZM20.5 32.1563C22.0084 32.1563 22.1146 31.7982 22.117 31.7878C22.3096 31.4821 22.4232 30.8163 22.2899 29.4448C22.2553 29.0931 22.1985 28.6702 22.1393 28.2074C22.0109 27.2359 21.8628 26.1032 21.8479 25.1464C21.8233 23.6661 22.0529 21.7754 23.5859 20.3014C24.4969 19.4284 25.672 19.0913 26.7262 19.0075C27.7236 18.9279 28.7308 19.0619 29.59 19.2253C30.4367 19.3865 31.323 19.6147 32.1204 19.8199L32.1895 19.8366C33.0437 20.0565 33.814 20.2533 34.5423 20.3936C36.1544 20.7034 36.774 20.5674 36.9888 20.4438C37.0826 20.3894 37.7813 19.9308 37.7813 17.5C37.7813 14.6013 36.7677 11.7676 34.8688 9.35743C32.97 6.94722 30.271 5.06869 27.1133 3.9594C23.9555 2.8501 20.4808 2.55986 17.1286 3.12537C13.7764 3.69089 10.6971 5.08676 8.28032 7.13647C5.86349 9.18619 4.21761 11.7977 3.55081 14.6407C2.88401 17.4837 3.22624 20.4306 4.53422 23.1087C5.84219 25.7868 8.05717 28.0758 10.8991 29.6862C13.7409 31.2967 17.0821 32.1563 20.5 32.1563Z" fill="black"/>
</g>
<defs>
<clipPath id="clip0_260_61">
<rect width="39.5" height="33.5" fill="white" transform="translate(0.75 0.75)"/>
</clipPath>
</defs>
</svg>
