<svg width="40" height="35" viewBox="0 0 40 35" fill="none" xmlns="http://www.w3.org/2000/svg">
<path d="M38.1552 7.77242C38.2699 7.67508 38.361 7.55953 38.4231 7.43236C38.4852 7.30518 38.5172 7.16888 38.5172 7.03123C38.5172 6.89358 38.4852 6.75727 38.4231 6.6301C38.361 6.50293 38.2699 6.38738 38.1552 6.29004C38.0404 6.19271 37.9041 6.1155 37.7542 6.06282C37.6042 6.01014 37.4435 5.98303 37.2812 5.98303C37.1189 5.98303 36.9582 6.01014 36.8082 6.06282C36.6583 6.1155 36.522 6.19271 36.4073 6.29004L20 20.2072L13.4677 14.665C13.3529 14.5677 13.2166 14.4905 13.0667 14.4378C12.9167 14.3851 12.756 14.358 12.5937 14.358C12.4314 14.358 12.2707 14.3851 12.1208 14.4378C11.9708 14.4905 11.8346 14.5677 11.7198 14.665C11.605 14.7624 11.514 14.8779 11.4519 15.0051C11.3898 15.1323 11.3578 15.2686 11.3578 15.4062C11.3578 15.5439 11.3898 15.6802 11.4519 15.8074C11.514 15.9345 11.605 16.0501 11.7198 16.1474L19.126 22.4287C19.2407 22.5262 19.3769 22.6035 19.5269 22.6563C19.6768 22.7091 19.8376 22.7362 20 22.7362C20.1623 22.7362 20.3231 22.7091 20.4731 22.6563C20.623 22.6035 20.7592 22.5262 20.8739 22.4287L38.1552 7.77242Z" fill="black"/>
<g clip-path="url(#clip0_242_141)">
<path d="M7.58219 3.57656C7.81397 3.34674 8.1017 3.16223 8.4256 3.03573C8.74949 2.90922 9.10185 2.84373 9.45844 2.84375H30.5416C30.8982 2.84373 31.2505 2.90922 31.5744 3.03573C31.8983 3.16223 32.186 3.34674 32.4178 3.57656L38.8588 9.94994C39.4339 10.5191 39.75 11.2439 39.75 11.9934V12.5273C39.7501 13.5637 39.3685 14.5742 38.6584 15.4176C37.9482 16.261 36.9452 16.8952 35.7893 17.2315C34.6335 17.5678 33.3826 17.5894 32.2116 17.2933C31.0405 16.9972 30.0078 16.3982 29.2578 15.58C28.7101 16.1784 28.0082 16.6625 27.2059 16.9952C26.4035 17.328 25.5221 17.5007 24.6289 17.5C23.7357 17.5008 22.8542 17.3283 22.0518 16.9955C21.2495 16.6627 20.5476 16.1785 20 15.58C19.4524 16.1785 18.7505 16.6627 17.9482 16.9955C17.1458 17.3283 16.2643 17.5008 15.3711 17.5C14.4779 17.5008 13.5964 17.3283 12.794 16.9955C11.9916 16.6627 11.2898 16.1785 10.7422 15.58C9.99216 16.3982 8.95946 16.9972 7.78842 17.2933C6.61738 17.5894 5.36652 17.5678 4.21068 17.2315C3.05483 16.8952 2.05175 16.261 1.34164 15.4176C0.631525 14.5742 0.249865 13.5637 0.25 12.5273V11.9934C0.250031 11.2439 0.56614 10.5191 1.14122 9.94994L7.58466 3.57447L7.58219 3.57656ZM11.9766 12.5273C11.9766 13.2909 12.3342 14.0231 12.9708 14.563C13.6074 15.1029 14.4708 15.4062 15.3711 15.4062C16.2714 15.4062 17.1348 15.1029 17.7714 14.563C18.408 14.0231 18.7656 13.2909 18.7656 12.5273C18.7656 12.2497 18.8957 11.9834 19.1272 11.7871C19.3587 11.5908 19.6726 11.4805 20 11.4805C20.3274 11.4805 20.6413 11.5908 20.8728 11.7871C21.1043 11.9834 21.2344 12.2497 21.2344 12.5273C21.2344 13.2909 21.592 14.0231 22.2286 14.563C22.8652 15.1029 23.7286 15.4062 24.6289 15.4062C25.5292 15.4062 26.3926 15.1029 27.0292 14.563C27.6658 14.0231 28.0234 13.2909 28.0234 12.5273C28.0234 12.2497 28.1535 11.9834 28.385 11.7871C28.6165 11.5908 28.9304 11.4805 29.2578 11.4805C29.5852 11.4805 29.8992 11.5908 30.1306 11.7871C30.3621 11.9834 30.4922 12.2497 30.4922 12.5273C30.4922 13.2909 30.8498 14.0231 31.4864 14.563C32.123 15.1029 32.9864 15.4062 33.8867 15.4062C34.787 15.4062 35.6504 15.1029 36.287 14.563C36.9236 14.0231 37.2812 13.2909 37.2812 12.5273V11.9934C37.2813 11.7439 37.1762 11.5026 36.985 11.313L30.5416 4.9375H9.45844L3.015 11.313C2.82379 11.5026 2.71873 11.7439 2.71875 11.9934V12.5273C2.71875 13.2909 3.07639 14.0231 3.71299 14.563C4.34958 15.1029 5.213 15.4062 6.11328 15.4062C7.01357 15.4062 7.87698 15.1029 8.51358 14.563C9.15018 14.0231 9.50781 13.2909 9.50781 12.5273C9.50781 12.2497 9.63786 11.9834 9.86935 11.7871C10.1008 11.5908 10.4148 11.4805 10.7422 11.4805C11.0696 11.4805 11.3835 11.5908 11.615 11.7871C11.8465 11.9834 11.9766 12.2497 11.9766 12.5273ZM3.95312 18.5469C4.2805 18.5469 4.59447 18.6572 4.82596 18.8535C5.05745 19.0498 5.1875 19.3161 5.1875 19.5938V32.1562H34.8125V19.5938C34.8125 19.3161 34.9426 19.0498 35.174 18.8535C35.4055 18.6572 35.7195 18.5469 36.0469 18.5469C36.3743 18.5469 36.6882 18.6572 36.9197 18.8535C37.1512 19.0498 37.2812 19.3161 37.2812 19.5938V32.1562H38.5156C38.843 32.1562 39.157 32.2665 39.3885 32.4629C39.6199 32.6592 39.75 32.9255 39.75 33.2031C39.75 33.4808 39.6199 33.7471 39.3885 33.9434C39.157 34.1397 38.843 34.25 38.5156 34.25H1.48438C1.157 34.25 0.84303 34.1397 0.61154 33.9434C0.38005 33.7471 0.25 33.4808 0.25 33.2031C0.25 32.9255 0.38005 32.6592 0.61154 32.4629C0.84303 32.2665 1.157 32.1562 1.48438 32.1562H2.71875V19.5938C2.71875 19.3161 2.8488 19.0498 3.08029 18.8535C3.31178 18.6572 3.62575 18.5469 3.95312 18.5469ZM8.89062 19.5938C9.218 19.5938 9.53197 19.704 9.76346 19.9004C9.99495 20.0967 10.125 20.363 10.125 20.6406V27.9688H29.875V20.6406C29.875 20.363 30.005 20.0967 30.2365 19.9004C30.468 19.704 30.782 19.5938 31.1094 19.5938C31.4368 19.5938 31.7507 19.704 31.9822 19.9004C32.2137 20.0967 32.3438 20.363 32.3438 20.6406V27.9688C32.3438 28.524 32.0837 29.0566 31.6207 29.4493C31.1577 29.8419 30.5298 30.0625 29.875 30.0625H10.125C9.47025 30.0625 8.84231 29.8419 8.37933 29.4493C7.91635 29.0566 7.65625 28.524 7.65625 27.9688V20.6406C7.65625 20.363 7.7863 20.0967 8.01779 19.9004C8.24928 19.704 8.56325 19.5938 8.89062 19.5938Z" fill="#070707"/>
</g>
<defs>
<clipPath id="clip0_242_141">
<rect width="39.5" height="33.5" fill="white" transform="translate(0.25 0.75)"/>
</clipPath>
</defs>
</svg>
