<svg width="41" height="35" viewBox="0 0 41 35" fill="none" xmlns="http://www.w3.org/2000/svg">
<path d="M21.0357 23.9236C24.0377 23.9236 25.8448 22.1041 25.8448 19.087V17.6172C25.8448 14.6022 24.0501 12.7911 21.0826 12.7911C19.2508 12.7911 17.8041 13.5176 17.382 14.6524H17.2264V9.08936H14.0417V23.7812H17.1771V22.125H17.3351C17.8535 23.2389 19.2508 23.9257 21.0357 23.9257V23.9236ZM19.9742 21.7775C18.3448 21.7775 17.2264 20.6929 17.2264 19.0975V17.7512C17.2264 16.0239 18.2633 14.9393 19.9371 14.9393C21.6257 14.9393 22.591 16.0239 22.591 17.904V18.8462C22.591 20.7055 21.6381 21.7775 19.9742 21.7775ZM6.19112 23.9445C8.08466 23.9445 9.15609 23.1991 9.66219 22.4014H9.80784V23.7812H12.8098V16.4929C12.8098 13.7417 10.4719 12.7597 7.60078 12.7597C4.09516 12.7597 2.60156 14.1918 2.45344 15.9715H5.45544C5.61344 15.2952 6.22816 14.8158 7.52919 14.8158C8.83022 14.8158 9.66219 15.3371 9.66219 16.43V17.4015H6.54169C3.57672 17.4015 1.98438 18.6892 1.98438 20.6322C1.98438 22.6778 3.69522 23.9445 6.19112 23.9445ZM7.228 21.9617C6.14175 21.9617 5.14191 21.4697 5.14191 20.4584C5.14191 19.6314 5.806 19.0263 7.21566 19.0263H9.66219V20.1527C9.66219 21.2059 8.56606 21.9617 7.228 21.9617ZM29.1925 23.1489C27.768 22.3114 26.9706 20.8709 26.9706 18.997V17.636C26.9706 14.6629 29.1777 12.7409 32.6611 12.7409C35.9988 12.7409 37.8923 14.4577 37.9417 16.5222H35.0113C34.9126 15.7873 34.3127 14.8974 32.745 14.8974C31.0811 14.8974 30.1652 15.9799 30.1652 17.6779V18.9865C30.1652 19.9664 30.4639 20.7327 31.0119 21.2205L29.1925 23.1468V23.1489Z" fill="black"/>
<path d="M36.4701 20.4605C36.6603 20.5894 36.8186 20.7488 36.936 20.9296C37.0535 21.1104 37.1277 21.309 37.1546 21.5142C37.1814 21.7194 37.1603 21.927 37.0924 22.1252C37.0245 22.3234 36.9112 22.5084 36.759 22.6694L26.884 33.1382C26.7212 33.3105 26.5173 33.4518 26.2857 33.5528C26.0542 33.6538 25.8001 33.7122 25.5401 33.7243C25.2801 33.7363 25.02 33.7017 24.7768 33.6228C24.5337 33.5438 24.3129 33.4222 24.1289 33.2659L17.957 28.0315C17.7751 27.8878 17.6292 27.7144 17.528 27.5218C17.4268 27.3292 17.3724 27.1212 17.368 26.9104C17.3636 26.6995 17.4093 26.4901 17.5024 26.2946C17.5956 26.099 17.7342 25.9214 17.91 25.7723C18.0858 25.6232 18.2952 25.5056 18.5258 25.4267C18.7563 25.3477 19.0033 25.3089 19.2519 25.3126C19.5005 25.3163 19.7457 25.3625 19.9728 25.4483C20.1999 25.5341 20.4044 25.6579 20.5739 25.8122L25.2842 29.8049L33.8656 20.7055C34.0175 20.5442 34.2055 20.41 34.4187 20.3104C34.6318 20.2108 34.8661 20.1478 35.108 20.125C35.3499 20.1023 35.5947 20.1202 35.8284 20.1778C36.0622 20.2353 36.2802 20.3314 36.4701 20.4605Z" fill="black"/>
</svg>
