<svg width="40" height="35" viewBox="0 0 40 35" fill="none" xmlns="http://www.w3.org/2000/svg">
<path d="M20.5357 23.9236C23.5377 23.9236 25.3448 22.1041 25.3448 19.087V17.6172C25.3448 14.6022 23.5501 12.7911 20.5826 12.7911C18.7508 12.7911 17.3041 13.5176 16.882 14.6524H16.7264V9.08936H13.5417V23.7812H16.6771V22.125H16.8351C17.3535 23.2389 18.7508 23.9257 20.5357 23.9257V23.9236ZM19.4742 21.7775C17.8448 21.7775 16.7264 20.6929 16.7264 19.0975V17.7512C16.7264 16.0239 17.7633 14.9393 19.4371 14.9393C21.1257 14.9393 22.091 16.0239 22.091 17.904V18.8462C22.091 20.7055 21.1381 21.7775 19.4742 21.7775ZM5.69112 23.9445C7.58466 23.9445 8.65609 23.1991 9.16219 22.4014H9.30784V23.7812H12.3098V16.4929C12.3098 13.7417 9.97194 12.7597 7.10078 12.7597C3.59516 12.7597 2.10156 14.1918 1.95344 15.9715H4.95544C5.11344 15.2952 5.72816 14.8158 7.02919 14.8158C8.33022 14.8158 9.16219 15.3371 9.16219 16.43V17.4015H6.04169C3.07672 17.4015 1.48438 18.6892 1.48438 20.6322C1.48438 22.6778 3.19522 23.9445 5.69112 23.9445ZM6.728 21.9617C5.64175 21.9617 4.64191 21.4697 4.64191 20.4584C4.64191 19.6314 5.306 19.0263 6.71566 19.0263H9.16219V20.1527C9.16219 21.2059 8.06606 21.9617 6.728 21.9617ZM28.6925 23.1489C27.268 22.3114 26.4706 20.8709 26.4706 18.997V17.636C26.4706 14.6629 28.6777 12.7409 32.1611 12.7409C35.4988 12.7409 37.3923 14.4577 37.4417 16.5222H34.5113C34.4126 15.7873 33.8127 14.8974 32.245 14.8974C30.5811 14.8974 29.6652 15.9799 29.6652 17.6779V18.9865C29.6652 19.9664 29.9639 20.7327 30.5119 21.2205L28.6925 23.1468V23.1489Z" fill="black"/>
<path d="M35.9703 20.4605C36.1605 20.5894 36.3188 20.7488 36.4362 20.9296C36.5537 21.1104 36.6279 21.309 36.6547 21.5142C36.6816 21.7194 36.6604 21.927 36.5926 22.1252C36.5247 22.3234 36.4114 22.5084 36.2592 22.6694L26.3842 33.1382C26.2214 33.3105 26.0175 33.4518 25.7859 33.5528C25.5544 33.6538 25.3003 33.7122 25.0403 33.7243C24.7803 33.7363 24.5202 33.7017 24.277 33.6228C24.0338 33.5438 23.813 33.4222 23.629 33.2659L17.4572 28.0315C17.2753 27.8878 17.1293 27.7144 17.0281 27.5218C16.9269 27.3292 16.8725 27.1212 16.8681 26.9104C16.8638 26.6995 16.9095 26.4901 17.0026 26.2946C17.0957 26.099 17.2343 25.9214 17.4102 25.7723C17.586 25.6232 17.7954 25.5056 18.026 25.4267C18.2565 25.3477 18.5035 25.3089 18.7521 25.3126C19.0007 25.3163 19.2459 25.3625 19.473 25.4483C19.7001 25.5341 19.9045 25.6579 20.074 25.8122L24.7844 29.8049L33.3658 20.7055C33.5177 20.5442 33.7057 20.41 33.9188 20.3104C34.132 20.2108 34.3663 20.1478 34.6082 20.125C34.8501 20.1023 35.0949 20.1202 35.3286 20.1778C35.5624 20.2353 35.7804 20.3314 35.9703 20.4605Z" fill="black"/>
</svg>
