<svg width="40" height="35" viewBox="0 0 40 35" fill="none" xmlns="http://www.w3.org/2000/svg">
<g clip-path="url(#clip0_57_774)">
<path d="M2.71875 0.749916L0.25 2.84367L5.68125 9.29451C5.9099 9.56616 6.21181 9.78752 6.5618 9.94012C6.9118 10.0927 7.29974 10.1722 7.69328 10.1718H7.86609C8.19068 10.1716 8.51214 10.2256 8.81206 10.3309C9.11198 10.4362 9.38448 10.5906 9.61397 10.7853L16.2179 16.386L9.75716 21.9429C8.65213 21.667 7.4865 21.6133 6.35274 21.786C5.21899 21.9588 4.14829 22.3532 3.22558 22.938C2.30288 23.5229 1.55355 24.282 1.03705 25.1552C0.520541 26.0284 0.251067 26.9917 0.25 27.9687C0.25148 28.8689 0.481084 29.7582 0.923256 30.5766C1.36543 31.395 2.00984 32.1231 2.81282 32.7118C3.61581 33.3005 4.55861 33.736 5.57735 33.9886C6.5961 34.2413 7.66697 34.3053 8.71743 34.1763C9.7679 34.0474 10.7734 33.7284 11.6658 33.2411C12.5582 32.7537 13.3167 32.1094 13.8899 31.3517C14.463 30.5941 14.8375 29.7408 14.9878 28.8497C15.1382 27.9586 15.0609 27.0505 14.7613 26.1869L21.3134 20.7075L23.7031 22.7343L22.9502 24.648C22.8055 25.0168 22.7847 25.4126 22.8902 25.7909C22.9958 26.1692 23.2234 26.5151 23.5476 26.7899L31.8327 33.8165C32.2957 34.209 32.9235 34.4295 33.5781 34.4295C34.2327 34.4295 34.8606 34.209 35.3235 33.8165L39.239 30.4958C39.7018 30.1032 39.9618 29.5707 39.9618 29.0155C39.9618 28.4604 39.7018 27.9279 39.239 27.5353L30.9538 20.5086C30.6298 20.2337 30.222 20.0406 29.7759 19.9511C29.3299 19.8616 28.8632 19.8792 28.4283 20.0019L26.1719 20.6405L23.8019 18.6305L30.4181 13.0968C31.5157 13.3452 32.6659 13.3766 33.78 13.1885C34.8942 13.0004 35.9425 12.5977 36.8441 12.0117C37.7458 11.4256 38.4767 10.6718 38.9805 9.80824C39.4843 8.94472 39.7476 7.99461 39.75 7.03117C39.75 6.46795 39.6636 5.92148 39.4982 5.40432L34.2151 9.88704L29.875 9.12492L28.9764 5.4462L34.262 0.963479C33.0046 0.676763 31.6804 0.676228 30.4227 0.961927C29.165 1.24763 28.0184 1.80946 27.0984 2.5908C26.1783 3.37214 25.5174 4.34537 25.1823 5.41239C24.8471 6.47941 24.8495 7.60251 25.1893 8.66848L18.6718 14.2755L12.0827 8.69151C11.6197 8.29895 11.3595 7.76648 11.3594 7.21123V7.06257C11.3594 6.72916 11.2656 6.40057 11.0856 6.10413C10.9057 5.80769 10.6449 5.55197 10.325 5.35826L2.71875 0.749916ZM26.5323 23.04C26.647 22.9425 26.7832 22.8651 26.9332 22.8124C27.0831 22.7596 27.2439 22.7324 27.4062 22.7324C27.5686 22.7324 27.7294 22.7596 27.8793 22.8124C28.0293 22.8651 28.1655 22.9425 28.2802 23.04L35.6864 29.3212C35.8012 29.4186 35.8922 29.5341 35.9544 29.6613C36.0165 29.7885 36.0484 29.9248 36.0484 30.0624C36.0484 30.2001 36.0165 30.3364 35.9544 30.4635C35.8922 30.5907 35.8012 30.7063 35.6864 30.8036C35.5717 30.9009 35.4354 30.9781 35.2855 31.0308C35.1355 31.0835 34.9748 31.1106 34.8125 31.1106C34.6502 31.1106 34.4895 31.0835 34.3395 31.0308C34.1896 30.9781 34.0533 30.9009 33.9386 30.8036L26.5323 24.5224C26.4174 24.4251 26.3262 24.3096 26.2639 24.1824C26.2017 24.0552 26.1697 23.9189 26.1697 23.7812C26.1697 23.6435 26.2017 23.5071 26.2639 23.3799C26.3262 23.2527 26.4174 23.1372 26.5323 23.04ZM7.65625 23.7812L8.81903 24.2879L10.125 24.3423L10.8335 25.274L11.9321 25.8749L11.9963 26.9825L12.5938 27.9687L11.9963 28.9548L11.9321 30.0624L10.8335 30.6633L10.125 31.595L8.81903 31.6495L7.65625 32.1562L6.49347 31.6495L5.1875 31.595L4.47897 30.6633L3.38037 30.0624L3.31619 28.9548L2.71875 27.9687L3.31619 26.9825L3.38037 25.8749L4.47897 25.274L5.1875 24.3423L6.49347 24.2879L7.65625 23.7812Z" fill="black"/>
</g>
<defs>
<clipPath id="clip0_57_774">
<rect width="39.5" height="33.5" fill="white" transform="translate(0.25 0.75)"/>
</clipPath>
</defs>
</svg>
