<svg width="41" height="35" viewBox="0 0 41 35" fill="none" xmlns="http://www.w3.org/2000/svg">
<g clip-path="url(#clip0_260_67)">
<path d="M3.21875 0.749916L0.75 2.84367L6.18125 9.29451C6.4099 9.56616 6.71181 9.78752 7.0618 9.94012C7.4118 10.0927 7.79974 10.1722 8.19328 10.1718H8.36609C8.69068 10.1716 9.01214 10.2256 9.31206 10.3309C9.61198 10.4362 9.88448 10.5906 10.114 10.7853L16.7179 16.386L10.2572 21.9429C9.15213 21.667 7.9865 21.6133 6.85274 21.786C5.71899 21.9588 4.64829 22.3532 3.72558 22.938C2.80288 23.5229 2.05355 24.282 1.53705 25.1552C1.02054 26.0284 0.751067 26.9917 0.75 27.9687C0.75148 28.8689 0.981084 29.7582 1.42326 30.5766C1.86543 31.395 2.50984 32.1231 3.31282 32.7118C4.11581 33.3005 5.05861 33.736 6.07735 33.9886C7.0961 34.2413 8.16697 34.3053 9.21743 34.1763C10.2679 34.0474 11.2734 33.7284 12.1658 33.2411C13.0582 32.7537 13.8167 32.1094 14.3899 31.3517C14.963 30.5941 15.3375 29.7408 15.4878 28.8497C15.6382 27.9586 15.5609 27.0505 15.2613 26.1869L21.8134 20.7075L24.2031 22.7343L23.4502 24.648C23.3055 25.0168 23.2847 25.4126 23.3902 25.7909C23.4958 26.1692 23.7234 26.5151 24.0476 26.7899L32.3327 33.8165C32.7957 34.209 33.4235 34.4295 34.0781 34.4295C34.7327 34.4295 35.3606 34.209 35.8235 33.8165L39.739 30.4958C40.2018 30.1032 40.4618 29.5707 40.4618 29.0155C40.4618 28.4604 40.2018 27.9279 39.739 27.5353L31.4538 20.5086C31.1298 20.2337 30.722 20.0406 30.2759 19.9511C29.8299 19.8616 29.3632 19.8792 28.9283 20.0019L26.6719 20.6405L24.3019 18.6305L30.9181 13.0968C32.0157 13.3452 33.1659 13.3766 34.28 13.1885C35.3942 13.0004 36.4425 12.5977 37.3441 12.0117C38.2458 11.4256 38.9767 10.6718 39.4805 9.80824C39.9843 8.94472 40.2476 7.99461 40.25 7.03117C40.25 6.46795 40.1636 5.92148 39.9982 5.40432L34.7151 9.88704L30.375 9.12492L29.4764 5.4462L34.762 0.963479C33.5046 0.676763 32.1804 0.676228 30.9227 0.961927C29.665 1.24763 28.5184 1.80946 27.5984 2.5908C26.6783 3.37214 26.0174 4.34537 25.6823 5.41239C25.3471 6.47941 25.3495 7.60251 25.6893 8.66848L19.1718 14.2755L12.5827 8.69151C12.1197 8.29895 11.8595 7.76648 11.8594 7.21123V7.06257C11.8594 6.72916 11.7656 6.40057 11.5856 6.10413C11.4057 5.80769 11.1449 5.55197 10.825 5.35826L3.21875 0.749916ZM27.0323 23.04C27.147 22.9425 27.2832 22.8651 27.4332 22.8124C27.5831 22.7596 27.7439 22.7324 27.9062 22.7324C28.0686 22.7324 28.2294 22.7596 28.3793 22.8124C28.5293 22.8651 28.6655 22.9425 28.7802 23.04L36.1864 29.3212C36.3012 29.4186 36.3922 29.5341 36.4544 29.6613C36.5165 29.7885 36.5484 29.9248 36.5484 30.0624C36.5484 30.2001 36.5165 30.3364 36.4544 30.4635C36.3922 30.5907 36.3012 30.7063 36.1864 30.8036C36.0717 30.9009 35.9354 30.9781 35.7855 31.0308C35.6355 31.0835 35.4748 31.1106 35.3125 31.1106C35.1502 31.1106 34.9895 31.0835 34.8395 31.0308C34.6896 30.9781 34.5533 30.9009 34.4386 30.8036L27.0323 24.5224C26.9174 24.4251 26.8262 24.3096 26.7639 24.1824C26.7017 24.0552 26.6697 23.9189 26.6697 23.7812C26.6697 23.6435 26.7017 23.5071 26.7639 23.3799C26.8262 23.2527 26.9174 23.1372 27.0323 23.04ZM8.15625 23.7812L9.31903 24.2879L10.625 24.3423L11.3335 25.274L12.4321 25.8749L12.4963 26.9825L13.0938 27.9687L12.4963 28.9548L12.4321 30.0624L11.3335 30.6633L10.625 31.595L9.31903 31.6495L8.15625 32.1562L6.99347 31.6495L5.6875 31.595L4.97897 30.6633L3.88037 30.0624L3.81619 28.9548L3.21875 27.9687L3.81619 26.9825L3.88037 25.8749L4.97897 25.274L5.6875 24.3423L6.99347 24.2879L8.15625 23.7812Z" fill="black"/>
</g>
<defs>
<clipPath id="clip0_260_67">
<rect width="39.5" height="33.5" fill="white" transform="translate(0.75 0.75)"/>
</clipPath>
</defs>
</svg>
